<?xml version="1.0" encoding="utf-8"?>
<!-- Generator: Adobe Illustrator 21.0.0, SVG Export Plug-In . SVG Version: 6.00 Build 0)  -->
<svg version="1.1" xmlns="http://www.w3.org/2000/svg" xmlns:xlink="http://www.w3.org/1999/xlink" x="0px" y="0px"
	 viewBox="0 0 595.3 841.9" style="enable-background:new 0 0 595.3 841.9;" xml:space="preserve">
<style type="text/css">
	.st0{display:none;}
	.st1{fill:#F7F8F8;}
	.st2{fill:#8EBDE2;}
	.st3{fill:#706966;}
	.st4{fill:#FFFFFF;}
	.st5{fill:#C9C9C9;}
	.st6{fill:#E2D2CA;}
	.st7{fill:#CCBDB7;}
	.st8{fill:#FAA958;}
	.st9{fill:#B59074;}
	.st10{fill:#D44140;}
	.st11{fill:#EAD8CF;}
	.st12{fill:#DB9C5C;}
	.st13{fill:#434873;}
	.st14{fill:#2A2C47;}
	.st15{fill:#EFA986;}
	.st16{fill:#3B4048;}
	.st17{fill:#323757;}
	.st18{fill:#928783;}
	.st19{fill:#5F5955;}
	.st20{fill:#BFB2AC;}
	.st21{fill:#254480;}
	.st22{fill:url(#SVGID_1_);}
	.st23{fill:#F6F7FB;}
	.st24{fill:#FFC656;}
	.st25{fill:#DFE1E8;}
	.st26{fill:#37582B;}
	.st27{fill:#47623D;}
	.st28{fill:#935F2D;}
	.st29{fill:#49763A;}
	.st30{fill:#548741;}
	.st31{fill:#877670;}
	.st32{fill:#876556;}
	.st33{fill:#725447;}
	.st34{fill:#9E643B;}
	.st35{fill:#97A33B;}
	.st36{fill:#835330;}
	.st37{fill:#C77C47;}
</style>
<g id="Layer_2" class="st0">
</g>
<g id="Layer_3">
	<line class="st1" x1="-352.4" y1="128.1" x2="-352.4" y2="-1045.3"/>
	<g>
		<g>
			<path class="st2" d="M318.5,411.2l-142.3,0.7c-5.9,0-10.7-4.7-10.8-10.7l-0.5-93.7c0-5.9,4.7-10.7,10.7-10.8l142.3-0.7
				c5.9,0,10.7,4.7,10.8,10.7l0.5,93.7C329.2,406.3,324.4,411.2,318.5,411.2z"/>
			
				<rect x="227.1" y="294.8" transform="matrix(1 -5.144594e-03 5.144594e-03 1 -1.5366 1.2751)" class="st3" width="39.9" height="9"/>
			<g>
				<g>
					<path class="st4" d="M207.2,319.2c0,0,0,26.2-2.8,36.6l-6.2,3.9l-21.8,0.1c4.1-11,4-40.5,4-40.5L207.2,319.2z"/>
					<polygon class="st5" points="198.3,359.7 198.2,355.8 204.4,355.7 					"/>
				</g>
			</g>
			<g>
				<g>
					<path class="st4" d="M233.5,312.7c0,0,0,18.1-1.9,25.4l-4.3,2.7l-15.1,0.1c2.8-7.6,2.8-28,2.8-28L233.5,312.7z"/>
					<polygon class="st5" points="227.3,340.8 227.3,338.1 231.6,338 					"/>
				</g>
			</g>
			<g>
				<g>
					<path class="st4" d="M232.6,352.1c0,0,0,13.3-1.6,18.7l-3.6,2l-12.6,0.1c2.4-5.6,2.3-20.7,2.3-20.7L232.6,352.1z"/>
					<polygon class="st5" points="227.3,372.8 227.3,370.8 230.9,370.8 					"/>
				</g>
			</g>
			<g>
				<g>
					<rect x="177.5" y="383.1" class="st4" width="38.1" height="2"/>
				</g>
				<g>
					<rect x="177.5" y="396.9" class="st4" width="43.9" height="2"/>
				</g>
				<g>
					<rect x="177.5" y="390" class="st4" width="27" height="2"/>
				</g>
			</g>
		</g>
		<g>
			<g>
				
					<rect x="305.6" y="441.5" transform="matrix(-1 -1.224647e-16 1.224647e-16 -1 654.9522 885.6006)" class="st6" width="43.8" height="2.6"/>
			</g>
			<g>
				<rect x="339.7" y="450.9" class="st3" width="3.8" height="118.3"/>
			</g>
			<g>
				
					<rect x="282" y="440.8" transform="matrix(-1 -1.224647e-16 1.224647e-16 -1 594.3961 885.2392)" class="st7" width="30.5" height="3.7"/>
			</g>
			<g>
				
					<rect x="291.4" y="409.1" transform="matrix(-1 -1.224647e-16 1.224647e-16 -1 594.3962 853.1721)" class="st8" width="11.5" height="35"/>
			</g>
			<g>
				
					<rect x="196.4" y="444.1" transform="matrix(-1 -1.224647e-16 1.224647e-16 -1 561.4589 895.0136)" class="st9" width="168.7" height="6.7"/>
			</g>
			<g>
				<path class="st10" d="M397.5,403.4c0,0,1.8,25.9-3.2,29c-3.2,1.9-15.8,8.5-15.4,9.7c0.4,1.2,7.1,10.9,7.1,10.9s24.3-16,25-21
					c0.8-4.9-1.2-37.9-4.5-39.4c-2.5-1.1-3.8-0.2-7,2.1C395.1,398,397.5,403.4,397.5,403.4z"/>
			</g>
			<g>
				<g>
					<g>
						<path class="st11" d="M353.3,410.8l-2.1-0.8c0,0,2.7-6.3,3.8-6.1c1.3,0.2,3,0.6,3,0.6L353.3,410.8z"/>
					</g>
				</g>
			</g>
			<g>
				<g>
					<g>
						<path class="st12" d="M352.8,411.9c0.3-0.2,4.5-8.4,4.5-8.4l9.1,1.2l-4.9,9.7L352.8,411.9z"/>
					</g>
				</g>
			</g>
			<g>
				<g>
					<g>
						<path class="st13" d="M367.6,553c0,0,0.8,5.2,0.8,6c0.1,0.8,8.4-0.5,8.4-0.5l0.7-6.2C377.5,552.3,368.7,552.3,367.6,553z"/>
					</g>
				</g>
			</g>
			<g>
				<g>
					<g>
						<path class="st14" d="M368.4,558.4c0,0-2.6,3.2-5.2,4.5c-2.5,1.4-6.5,1.9-8,3.3c-1.1,1-4,5.5,6.6,5.4
							c10.6-0.1,15.7,0.6,16.8-1.1c1.1-1.7-1.6-12.5-1.6-12.5S374.4,558.9,368.4,558.4z"/>
					</g>
				</g>
			</g>
			<g>
				<g>
					<g>
						<path class="st13" d="M314.5,553.1c0,0,0.8,5.2,0.8,6c0.1,0.8,8.4-0.5,8.4-0.5l0.7-6.2C324.4,552.4,315.5,552.3,314.5,553.1z"
							/>
					</g>
				</g>
			</g>
			<g>
				<g>
					<g>
						<path class="st14" d="M315.2,558.4c0,0-2.6,3.2-5.2,4.5c-2.5,1.4-11.9,2.5-13.4,3.9c-1.1,1-2.9,5.2,12,4.8
							c10.6-0.3,15.7,0.6,16.8-1.1c1.1-1.7-1.6-12.5-1.6-12.5S321.4,559,315.2,558.4z"/>
					</g>
				</g>
			</g>
			<g>
				<g>
					<g>
						<path class="st14" d="M394.4,462.5c0,0-30.2,5.1-37,6.2c-6.8,1.1-43.8,10.3-48.4,13.1c-3.7,2.2,1.9,55.8,3.2,76.2h14.6
							l1.1-61.3c17.5,0.4,29.9-4.1,42.6-2.2c12.7,1.9,23.3,4.7,31.4-6.2C401.9,488.4,402.2,464.9,394.4,462.5z"/>
					</g>
				</g>
			</g>
			<g>
				<g>
					<g>
						<path class="st14" d="M364.7,558.1l14.2-0.9l1.4-60.5c7.5,0.2,10.1-0.3,16.2-1l11.5-26.6c-10,2-42.2,10.1-46.5,12.7
							C357.7,484,363.4,537.6,364.7,558.1z"/>
					</g>
				</g>
			</g>
			<g>
				<g>
					<g>
						<path class="st15" d="M380.5,349.5c0,0-11.1-3.1-15.3,5.5c-4.2,8.6-2.3,24.9,3.3,26.4c5.6,1.5,13.6-0.2,15.9-5.6
							c2.3-5.3,4.2-12.9,3.6-17.9C387.5,353,383.5,350.6,380.5,349.5z"/>
					</g>
				</g>
			</g>
			<g>
				<g>
					<g>
						<path class="st15" d="M371.4,379.7c0,0,0.1,6.5-0.6,7.9c-0.7,1.4,15.4,1,15.4,1s-2.5-7.8-1.1-14.5
							C386.5,367.5,371.4,379.7,371.4,379.7z"/>
					</g>
				</g>
			</g>
			<g>
				<g>
					<g>
						<path class="st16" d="M386,371.6c0,0-0.9,1.8-5,1.5c-4.2-0.3-9.7-5.3-11.4-5.8c-1.8-0.4-1.9-1.5-1.9-1.5l-0.9,1.7l-1.8,0.3
							c0,0,1.2-5-1.5-6.8c-2.7-1.8,1.2-16.1,14.8-12.6c0,0,10.4,1.9,10.5,7.7C388.9,361.9,388,368.6,386,371.6z"/>
					</g>
				</g>
			</g>
			<g>
				<g>
					<g>
						<path class="st6" d="M369.9,387.4c0,0,0-2.7,1.3-2.9c1.2-0.3,12.7-1.8,14.2-1.3l0.6,3.5C386,386.8,383.1,388.5,369.9,387.4z"
							/>
					</g>
				</g>
			</g>
			<g>
				<g>
					<g>
						<path class="st15" d="M366.6,364.7c0.3-2.2,2.8-4.7,4.2-1.3c1.4,3.4-1,8.3-2.6,8.1C366.7,371.2,366.2,367.6,366.6,364.7z"/>
					</g>
				</g>
			</g>
			<g>
				<g>
					<g>
						<path class="st17" d="M321.9,418.8C321.9,418.8,321.9,418.8,321.9,418.8C321.9,418.9,321.8,418.9,321.9,418.8z"/>
					</g>
				</g>
			</g>
			<g>
				<g>
					<g>
						<path class="st16" d="M383.7,351c0,0,13.5-0.6,2.4,20.4L383.7,351z"/>
					</g>
				</g>
			</g>
			<g>
				<g>
					<polygon class="st18" points="413.8,565.2 412.8,568.1 370.4,554.9 372.4,549.2 					"/>
				</g>
			</g>
			<g>
				<g>
					
						<rect x="368.9" y="506.8" transform="matrix(-1 -1.224647e-16 1.224647e-16 -1 742.7031 1059.7335)" class="st18" width="4.8" height="46.1"/>
				</g>
			</g>
			<g>
				<g>
					
						<rect x="357.1" y="504.4" transform="matrix(-1 -1.224647e-16 1.224647e-16 -1 742.7031 1011.47)" class="st19" width="28.4" height="2.7"/>
				</g>
			</g>
			<g>
				<g>
					<polygon class="st18" points="328.5,565.2 329.5,568.1 371.9,554.9 370.1,548.8 					"/>
				</g>
			</g>
			<g>
				<g>
					<polygon class="st18" points="358.4,567.7 358.4,571 371.9,554.9 370.1,548.8 					"/>
				</g>
			</g>
			<g>
				<g>
					<circle class="st20" cx="328.5" cy="569.2" r="4"/>
				</g>
			</g>
			<g>
				<g>
					<circle class="st20" cx="362" cy="569.2" r="4"/>
				</g>
			</g>
			<g>
				<g>
					<circle class="st20" cx="413.8" cy="569.2" r="4"/>
				</g>
			</g>
			<g>
				<path class="st21" d="M342.7,504.4h57c2.8,0,5.1-2.3,5.1-5.1v0c0-2.8-2.3-5.1-5.1-5.1h-57c-2.8,0-5.1,2.3-5.1,5.1v0
					C337.5,502.1,339.8,504.4,342.7,504.4z"/>
			</g>
			<g>
				
					<rect x="217.9" y="450.9" transform="matrix(-1 -1.224647e-16 1.224647e-16 -1 439.7342 1020.0238)" class="st3" width="3.8" height="118.3"/>
			</g>
			<g>
				<linearGradient id="SVGID_1_" gradientUnits="userSpaceOnUse" x1="247.405" y1="390.8188" x2="346.9911" y2="390.8188">
					<stop  offset="0" style="stop-color:#F89E59"/>
					<stop  offset="1" style="stop-color:#FFD356"/>
				</linearGradient>
				<path class="st22" d="M260.8,425.9h72.7c7.4,0,13.4-6,13.4-13.4v-43.4c0-7.4-6-13.4-13.4-13.4h-72.7c-7.4,0-13.4,6-13.4,13.4
					v43.4C247.4,419.9,253.4,425.9,260.8,425.9z"/>
			</g>
			<g>
				
					<rect x="251.3" y="359.5" transform="matrix(-1 -1.224647e-16 1.224647e-16 -1 594.3961 774.4258)" class="st23" width="91.8" height="55.4"/>
			</g>
			<g>
				<path class="st24" d="M276.6,444.2V443c0,0,1.8-7.8,14.2-7.8c12.4,0,12.2,9,12.2,9H276.6z"/>
			</g>
			<g>
				<g>
					<path class="st15" d="M303.1,436.4c0,0-2.7-0.2-3.7-0.8c-1-0.6-6.9-4.6-8.3-3.9c-1.4,0.6-10.6,3.5-10.3,4.8
						c0.3,1.4,1.2,1.2,1.8,1c0.7-0.2,7.4-1.6,8-1.4c0,0-6.6,2.4-6.6,4.2c0,1.8,1.4,2.2,2,2.8c0.6,0.7,1.4,2.3,3.1,2.4
						c1.7,0.1,10-2.8,11.7-2.9c1.7-0.1,4.9,0.1,5.1-0.2C306.1,442.1,303.1,436.4,303.1,436.4z"/>
				</g>
			</g>
			<g>
				<g>
					<g>
						<path class="st10" d="M352.3,391.1c8.6-1.5,17.7-3.7,17.7-3.7l16-0.7c0,0,14.7,3.2,20.5,5.9c0.5,0.2,0.6,13.1,2.1,16.5
							l-4.8,10.1c0,0-2.8,20.1-3.4,29c-0.3,4.1,0.7,39.6,0.7,39.6s-1.4,0.7-12.4,1.9c-10.9,1.2-38.3-0.4-38.5-1.7
							c-0.2-1.3,5.3-48.1,5.5-50.6c0.4-3.7-1.1-20.9-1.1-20.9c-2.1,2.8-7.3,15.3-12.8,21.2c-3.2,3.5-19.2,5.6-22.2,5.7
							c-6.5,0.2-18.5,1.5-18.8,0.9c-0.3-0.4-1-10.6-0.3-10.9c0.7-0.2,22.8-1.5,28.5-4.5c2.1-1.1,8.3-14.7,8.3-14.7
							S347.5,393.2,352.3,391.1z"/>
					</g>
				</g>
			</g>
			<g>
				<path class="st21" d="M397.3,486.9L397.3,486.9c12.8,0,23.2-10.4,23.2-23.2v-17.9c0-12.8-10.4-23.2-23.2-23.2h0
					c-12.8,0-23.2,10.4-23.2,23.2v17.9C374.1,476.5,384.5,486.9,397.3,486.9z"/>
			</g>
			<g>
				<path class="st21" d="M382.4,501.8c6.8,0,12.4-2.3,16.5-6.8c9.3-10.2,7.6-28.3,7.5-29c-0.1-1.4-1.4-2.5-2.8-2.3
					c-1.4,0.1-2.5,1.4-2.3,2.8c0,0.2,1.5,16.5-6.2,25.1c-3.1,3.4-7.3,5.1-12.7,5.1c-1.4,0-2.6,1.2-2.6,2.6
					C379.8,500.7,380.9,501.8,382.4,501.8z"/>
			</g>
			<g>
				<g>
					<g>
						<path class="st25" d="M311.2,366.8h24c0.8,0,1.5-0.7,1.5-1.5v0c0-0.8-0.7-1.5-1.5-1.5h-24c-0.8,0-1.5,0.7-1.5,1.5l0,0
							C309.7,366.2,310.4,366.8,311.2,366.8z"/>
					</g>
				</g>
			</g>
			<g>
				<g>
					<g>
						<path class="st25" d="M311.2,373.1h24c0.8,0,1.5-0.7,1.5-1.5v0c0-0.8-0.7-1.5-1.5-1.5h-24c-0.8,0-1.5,0.7-1.5,1.5l0,0
							C309.7,372.5,310.4,373.1,311.2,373.1z"/>
					</g>
				</g>
			</g>
			<g>
				<g>
					<g>
						<path class="st25" d="M316.2,410.5h13.9c3.6,0,6.5-2.9,6.5-6.5v-20.2c0-3.6-2.9-6.5-6.5-6.5h-13.9c-3.6,0-6.5,2.9-6.5,6.5V404
							C309.7,407.6,312.6,410.5,316.2,410.5z"/>
					</g>
				</g>
			</g>
			<g>
				<g>
					<g>
						<path class="st25" d="M266.6,410.5H294c5.7,0,10.3-4.6,10.3-10.3v-26.1c0-5.7-4.6-10.3-10.3-10.3h-27.4
							c-5.7,0-10.3,4.6-10.3,10.3v26.1C256.4,405.9,261,410.5,266.6,410.5z"/>
					</g>
				</g>
			</g>
		</g>
		<g>
			<path class="st26" d="M217.1,406.7c6,0,10.9-4.9,10.9-10.9c0-1.6-0.4-3.2-1-4.5c-1.7-3.7-5.5-6.3-9.9-6.3
				c-6,0-10.9,4.9-10.9,10.9c0,2.1,0.6,4,1.6,5.6C209.7,404.6,213.1,406.7,217.1,406.7z"/>
			<path class="st27" d="M228.1,405.8c4.2,0,7.6-3.4,7.6-7.6c0-0.2,0-0.5,0-0.7c-0.4-3.9-3.6-6.9-7.6-6.9c-4.2,0-7.6,3.4-7.6,7.6
				c0,2.7,1.4,5,3.4,6.4C225.1,405.3,226.6,405.8,228.1,405.8z"/>
			<path class="st28" d="M216.9,396.5c0,0-0.6,5-0.8,11.9c-0.2,6.9,5.2,6.9,5.2,6.9v25.1h3.8c0,0-0.1-25.6,1.8-27.7
				c1.9-2.1,1.9-11.8,1.9-11.8l-1.1-0.6c0,0,1.6,11.6-5.7,13.3c-7.4,1.7-4.6-16.5-4.6-16.5L216.9,396.5z"/>
			<path class="st29" d="M214.4,397.6c6.2-1.2,10.3-3.9,12.6-6.3c-1.7-3.7-5.5-6.3-9.9-6.3c-6,0-10.9,4.9-10.9,10.9
				c0,2.1,0.6,4,1.6,5.6C208.1,400,209.7,398.5,214.4,397.6z"/>
			<path class="st30" d="M230.3,400.3c2.5-0.7,4.2-1.7,5.3-2.8c-0.4-3.9-3.6-6.9-7.6-6.9c-4.2,0-7.6,3.4-7.6,7.6
				c0,2.7,1.4,5,3.4,6.4C224.7,403.1,226.5,401.4,230.3,400.3z"/>
			<polygon class="st31" points="234.6,428.7 209,428.7 210.4,433.4 233,433.4 			"/>
			<polygon class="st32" points="231.4,433.4 212.4,433.4 215.1,444.2 229.6,444.2 			"/>
			<path class="st30" d="M228.8,391.5l0.7,0.2c0,0,1-2.8,1.1-3.2C230.6,388.2,228.8,391.5,228.8,391.5z"/>
			<path class="st30" d="M235,391.7l-3.3,1c0,0,0,0.3,0.4,0.3C232.6,393,235,391.7,235,391.7z"/>
			<path class="st30" d="M233.9,398.5H233c0,0,0.2,1.2,0.8,2C234.5,401.3,233.9,398.5,233.9,398.5z"/>
			<path class="st29" d="M213.9,383c-0.3,0.2,1.2,4,1.2,4h0.8C215.9,386.9,214.2,382.7,213.9,383z"/>
			<path class="st29" d="M217.4,386c0.1-1-0.7-2.7-0.7-2.7v2.6C216.8,385.9,217.3,387,217.4,386z"/>
			<path class="st29" d="M211.4,400.7c0.5-0.4,0.5-3.8,0.5-3.8l-0.7,0.3C211.2,397.2,211,401.1,211.4,400.7z"/>
			<path class="st33" d="M225.1,433.4h-12.7l2.6,10.7h4.2C216.9,435.5,225.1,433.4,225.1,433.4z"/>
		</g>
		<g>
			<path class="st34" d="M215.7,444.2c1-0.4,2.7-5.4,3.5-7.9c0.3-0.9,0.5-1.5,0.5-1.5h-9.5c0.8,5.9,2.8,9.4,2.8,9.4H215.7z"/>
			<path class="st35" d="M216.5,431.8c0-0.3,1.5-1.8,2.3-2.7c0.8-0.9-0.3-2.7-0.3-2.7c-3.4,1.4-2.8,5.4-2.8,5.4
				S216.5,432.2,216.5,431.8z"/>
			<path class="st35" d="M214.6,432h0.4c0,0,0.3-6.9-2.2-7.9c-2.5-0.9-2.5-2.8-2.5-2.8s-0.8,2.6,0.5,3.9c1.2,1.4,2.6,2.9,2.4,4.2
				C212.9,430.8,214.6,432,214.6,432z"/>
			<path class="st36" d="M219.3,436.3c0.3-0.9,0.5-1.5,0.5-1.5h-9.5c0.8,5.9,2.8,9.4,2.8,9.4h0.6
				C213.5,438.7,217.2,436.8,219.3,436.3z"/>
			<polygon class="st37" points="219.7,431.8 210.1,431.8 209.6,434.8 220.1,434.8 			"/>
		</g>
	</g>
</g>
</svg>
